<?xml version="1.0" encoding="utf-8"?>
<!-- Generator: Adobe Illustrator 16.0.4, SVG Export Plug-In . SVG Version: 6.00 Build 0)  -->
<!DOCTYPE svg PUBLIC "-//W3C//DTD SVG 1.1//EN" "http://www.w3.org/Graphics/SVG/1.1/DTD/svg11.dtd">
<svg version="1.1" id="Layer_1" xmlns="http://www.w3.org/2000/svg" xmlns:xlink="http://www.w3.org/1999/xlink" x="0px" y="0px"
	 width="1400px" height="400px" viewBox="0 0 1400 400" enable-background="new 0 0 1400 400" xml:space="preserve">
<g id="Layer_4">
</g>
<polygon fill="#FFFFFF" fill-opacity="0.05" points="1225.654,-48.146 1006,-45 961.089,-23.774 1192.261,10.293 "/>
<polygon fill="#FFFFFF" fill-opacity="0.25" points="1011.468,47.54 937.371,158.26 1102.574,184.931 "/>
<polygon fill="#FFFFFF" fill-opacity="0.2" points="937.371,158.26 1011.468,47.54 851.148,147.656 891.001,148.333 "/>
<polygon fill="none" points="1011.573,47.382 1011.529,47.409 1011.55,47.417 "/>
<polygon fill="#FFFFFF" fill-opacity="0.2" points="1271.739,201.49 1327.996,206.997 1400,196.21 1400,110.09 1367.671,71.666 "/>
<polygon fill="#FFFFFF" fill-opacity="0.05" points="947.961,-17.57 752.578,145.983 826.102,147.231 "/>
<polygon fill="#FFFFFF" fill-opacity="0.05" points="1400,216.484 1263.32,400 1400,400 "/>
<line fill="none" x1="1051.638" y1="400" x2="1050.428" y2="400"/>
<polygon fill="#FFFFFF" fill-opacity="0.1" points="1400,196.21 1327.996,206.997 1254.587,400 1263.32,400 1400,216.484 "/>
<polygon fill="#FFFFFF" fill-opacity="0.2" points="1102.574,184.931 937.371,158.26 891.001,148.333 901.73,165.27 1050.428,400 
	1136.524,188.254 "/>
<polygon fill="#FFFFFF" fill-opacity="0.1" points="851.148,147.656 752.578,145.983 724.942,144.935 757.085,400 768.458,400 
	856.259,219.684 883.617,163.497 891.001,148.333 "/>
<polygon fill="#FFFFFF" fill-opacity="0.15" points="891.001,148.333 768.458,400 1050.428,400 "/>
<polygon fill="#FFFFFF" fill-opacity="0.15" points="1136.524,188.254 1232.704,400 1254.587,400 1327.996,206.997 "/>
<polygon fill="#FFFFFF" fill-opacity="0.25" points="1400,110.09 1400,85.765 1367.671,71.666 "/>
<polygon fill="none" points="1011.332,47.335 1011.425,47.475 1011.529,47.409 "/>
<polygon fill="none" points="1011.55,47.417 1011.529,47.409 1011.425,47.475 1011.468,47.54 "/>
<polygon fill="#FFFFFF" fill-opacity="0.2" points="1085.324,75.128 1142.968,96.741 1192.261,10.293 961.089,-23.774 
	952.273,-19.609 "/>
<polygon fill="#FFFFFF" fill-opacity="0.1" points="1400,-50.642 1340.727,32.173 1300.87,91.734 1367.671,71.666 1400,85.765 "/>
<polygon fill="#FFFFFF" fill-opacity="0.15" points="1240.719,-48.361 1265.318,21.061 1291.373,94.587 1300.87,91.734 
	1340.727,32.173 1400,-50.642 "/>
<polygon fill="#FFFFFF" fill-opacity="0.23" points="1205.643,120.554 1162.923,190.828 1271.739,201.49 1367.671,71.666 "/>
<polygon fill="#FFFFFF" fill-opacity="0.3" points="1142.968,96.741 1085.43,75.128 1011.573,47.54 1102.68,184.931 
	1162.923,190.828 1205.643,120.554 "/>
<path fill="#FFFFFF" d="M1025.979,424.666"/>
<polygon fill="#FFFFFF" fill-opacity="0.25" points="1136.524,188.254 1050.428,400 1232.704,400 "/>
<polygon fill="#FFFFFF" fill-opacity="0.15" points="952.273,-19.609 947.961,-17.57 826.102,147.231 851.148,147.656 
	937.562,93.643 1011.468,47.54 1085.208,75.045 "/>
<polygon fill="#FFFFFF" fill-opacity="0.25" points="1240.719,-48.361 1225.654,-48.146 1142.968,96.741 1205.643,120.554 
	1291.373,94.587 "/>
<polygon fill="#FFFFFF" fill-opacity="0.05" points="724.951,145 557,400 757.085,400 "/>
</svg>
