<?xml version="1.0" encoding="UTF-8" standalone="no"?>
<svg width="1900px" height="300px" viewBox="0 0 1900 300" version="1.1" xmlns="http://www.w3.org/2000/svg" xmlns:xlink="http://www.w3.org/1999/xlink" xmlns:sketch="http://www.bohemiancoding.com/sketch/ns">
    <!-- Generator: Sketch 3.0.1 (7597) - http://www.bohemiancoding.com/sketch -->
    <title>blueprint</title>
    <description>Created with Sketch.</description>
    <defs></defs>
    <g id="Page-1" stroke="none" stroke-width="1" fill="none" fill-rule="evenodd" sketch:type="MSPage">
        <g id="blueprint" sketch:type="MSArtboardGroup" fill-opacity="0.2" fill="#FFFFFF">
            <path d="M1975.222,312.522 L1814.825,266.27 C1814.851,266.093 1814.88,265.916 1814.88,265.732 C1814.88,265.142 1814.73,264.593 1814.484,264.097 L1917.491,194.746 L1928.04,206.998 L1928.798,206.346 L1918.326,194.184 L1971.696,158.251 L1971.138,157.421 L1917.669,193.42 L1799.657,56.359 C1800.239,55.703 1800.605,54.848 1800.605,53.904 C1800.605,52.921 1800.214,52.031 1799.589,51.365 L1904.999,-78.529 L1933.358,-97.244 L1932.808,-98.078 L1907.091,-81.108 L1958.139,-144.013 L1957.361,-144.644 L1904.316,-79.276 L1661.155,81.185 C1660.525,80.022 1659.309,79.222 1657.896,79.222 C1657.182,79.222 1656.519,79.433 1655.952,79.785 L1567.544,-5.932 C1568.052,-6.567 1568.367,-7.361 1568.367,-8.236 C1568.367,-9.279 1567.933,-10.221 1567.238,-10.897 L1687.152,-159.487 L1501.787,-161.498 L1501.032,-161.506 L1562.629,-11.354 C1561.606,-10.69 1560.926,-9.543 1560.926,-8.236 C1560.926,-7.733 1561.028,-7.256 1561.21,-6.817 L1372.386,110.228 C1371.704,109.404 1370.684,108.866 1369.532,108.866 C1369.394,108.866 1369.263,108.893 1369.128,108.907 L1303.812,-152.287 L1343.818,-196.328 L1343.078,-197 L1303.521,-153.453 L1295.269,-186.451 L1294.298,-186.209 L1302.712,-152.563 L1223.013,-64.826 C1222.421,-65.222 1221.712,-65.454 1220.948,-65.454 C1218.898,-65.454 1217.228,-63.785 1217.228,-61.733 C1217.228,-60.843 1217.556,-60.036 1218.079,-59.395 L1096.336,74.627 C1095.693,74.097 1094.882,73.767 1093.987,73.767 C1093.604,73.767 1093.24,73.843 1092.891,73.951 L985.483,-156.656 L1013.2,-172.732 L1012.698,-173.597 L985.06,-157.567 L974.902,-179.375 L973.996,-178.953 L984.191,-157.063 L856.269,-82.867 C855.677,-83.265 854.965,-83.498 854.199,-83.498 C852.147,-83.498 850.479,-81.829 850.479,-79.777 C850.479,-79.69 850.498,-79.609 850.504,-79.524 L747.991,-20.065 C747.311,-20.795 746.349,-21.26 745.275,-21.26 C743.895,-21.26 742.702,-20.496 742.06,-19.377 L602.177,-94.902 C602.314,-95.289 602.403,-95.7 602.403,-96.135 C602.403,-98.187 600.734,-99.856 598.683,-99.856 C598.591,-99.856 598.506,-99.835 598.416,-99.828 L603.948,-173.126 L602.95,-173.202 L597.396,-99.612 C595.979,-99.086 594.962,-97.732 594.962,-96.135 C594.962,-94.736 595.746,-93.531 596.89,-92.895 L584.496,71.311 C584.387,71.302 584.282,71.278 584.17,71.278 C582.297,71.278 580.759,72.674 580.502,74.477 L362.336,61.917 C362.366,61.726 362.394,61.535 362.394,61.337 C362.394,59.285 360.726,57.616 358.674,57.616 C358.269,57.616 357.887,57.697 357.521,57.817 L298.856,-70.307 C299.895,-70.967 300.592,-72.121 300.592,-73.442 C300.592,-73.879 300.502,-74.293 300.362,-74.683 L457.179,-155.72 L456.72,-156.608 L299.91,-75.575 C299.867,-75.637 299.815,-75.69 299.768,-75.748 L376.31,-155.819 L375.588,-156.51 L299.055,-76.44 C298.439,-76.889 297.689,-77.162 296.871,-77.162 C296.495,-77.162 296.141,-77.09 295.799,-76.987 L244.571,-188.866 L243.661,-188.45 L294.886,-76.576 C293.847,-75.916 293.15,-74.762 293.15,-73.442 C293.15,-72.79 293.333,-72.186 293.629,-71.652 L118.392,58.737 C117.716,58.047 116.776,57.616 115.736,57.616 C114.864,57.616 114.072,57.93 113.437,58.433 L4.764,-46.024 L4.07,-45.304 L112.74,59.15 C112.29,59.765 112.016,60.518 112.016,61.337 C112.016,61.988 112.198,62.592 112.494,63.125 L-5.25717969,146.302004 L-4.65917969,147.104004 L113.08,63.935 C113.756,64.625 114.695,65.058 115.736,65.058 C115.979,65.058 116.217,65.03 116.447,64.986 L168.684,218.809 C167.517,219.293 166.696,220.441 166.696,221.782 C166.696,222 166.72,222.213 166.761,222.42 L-8.8817842e-16,281.364 L0.334,282.308 L167.122,223.353 C167.674,224.333 168.712,225.003 169.917,225.003 C171.696,225.003 173.138,223.561 173.138,221.782 C173.138,221.599 173.113,221.421 173.083,221.246 L253.427,192.847 C254.002,193.725 254.991,194.307 256.119,194.307 C257.898,194.307 259.34,192.864 259.34,191.086 C259.34,190.977 259.318,190.874 259.307,190.767 L392.282,143.765 C392.366,143.896 392.465,144.015 392.564,144.134 L210.749,343.036 C210.227,342.669 209.593,342.449 208.904,342.449 C207.125,342.449 205.684,343.891 205.684,345.67 C205.684,346.461 205.979,347.176 206.453,347.736 L90.58,474.499 L91.318,475.173 L207.204,348.395 C207.597,348.641 208.046,348.796 208.528,348.852 L213.138,462.803 L156.69,496.908 L157.208,497.764 L213.184,463.943 L214.616,499.356 L215.616,499.315 L214.161,463.352 L368.288,370.228 C368.878,370.929 369.751,371.383 370.739,371.383 C371.194,371.383 371.626,371.286 372.018,371.116 L433.359,467.936 L434.205,467.401 L372.857,370.57 C373.528,369.98 373.96,369.125 373.96,368.162 C373.96,367.731 373.872,367.322 373.719,366.946 L487.656,298.105 C488.313,298.689 489.169,299.056 490.116,299.056 C491.005,299.056 491.811,298.729 492.451,298.208 L620.786,425.238 C620.217,425.891 619.859,426.735 619.859,427.669 C619.859,429.299 620.919,430.672 622.38,431.174 L588.957,618.248 L589.941,618.424 L623.361,431.367 C623.435,431.372 623.505,431.39 623.58,431.39 C625.632,431.39 627.301,429.721 627.301,427.669 C627.301,425.993 626.181,424.59 624.655,424.125 L643.408,319.161 C643.431,319.162 643.452,319.168 643.475,319.168 C644.84,319.168 645.999,318.315 646.468,317.117 L835.599,358.67 C835.54,358.912 835.501,359.163 835.501,359.424 C835.501,360.074 835.697,360.678 836.029,361.185 L675.412,538 L676.152,538.672 L836.711,361.921 C837.263,362.367 837.956,362.645 838.722,362.645 C839.494,362.645 840.193,362.361 840.748,361.908 L930.244,463.805 L927.078,467.336 L927.822,468.004 L930.908,464.561 L958.521,495.999 L959.272,495.339 L931.581,463.81 L1035.368,348.035 C1035.872,348.362 1036.471,348.556 1037.116,348.556 C1037.194,348.556 1037.268,348.539 1037.345,348.533 L1068.297,482.116 L1069.272,481.89 L1038.321,348.318 C1039.395,347.885 1040.167,346.888 1040.301,345.693 L1175.817,339.621 C1176.148,341.049 1177.421,342.115 1178.948,342.115 C1179.388,342.115 1179.806,342.025 1180.188,341.867 L1258.675,469.596 L1349.884,466.538 L1302.558,431.026 C1302.797,430.574 1302.945,430.068 1302.945,429.523 C1302.945,428.723 1302.644,428.001 1302.161,427.437 L1417.298,292.431 L1463.382,464.078 L1458.56,470.02 L1459.337,470.651 L1463.702,465.271 L1477.716,517.466 L1478.682,517.206 L1464.481,464.312 L1575.944,326.959 C1576.03,326.965 1576.112,326.984 1576.199,326.984 C1576.235,326.984 1576.269,326.975 1576.305,326.974 L1601.955,482.085 L1602.941,481.921 L1577.291,326.802 C1578.808,326.332 1579.92,324.934 1579.92,323.264 C1579.92,322.911 1579.854,322.576 1579.762,322.253 L1658.087,225.735 C1658.348,225.794 1658.618,225.83 1658.896,225.83 C1660.51,225.83 1661.872,224.791 1662.387,223.351 L1807.493,265.195 C1807.467,265.373 1807.438,265.549 1807.438,265.732 C1807.438,267.784 1809.107,269.453 1811.159,269.453 C1812.677,269.453 1813.98,268.538 1814.557,267.233 L1974.945,313.483 L1975.222,312.522 L1975.222,312.522 Z M1902.224,-76.698 L1798.809,50.736 C1798.246,50.393 1797.591,50.183 1796.884,50.183 C1794.832,50.183 1793.163,51.852 1793.163,53.904 C1793.163,54.888 1793.554,55.777 1794.178,56.443 L1661.701,219.693 C1661.018,218.901 1660.02,218.389 1658.896,218.389 C1657.479,218.389 1656.259,219.194 1655.632,220.363 L1516.454,180.229 C1516.48,180.053 1516.509,179.876 1516.509,179.692 C1516.509,179.115 1516.365,178.574 1516.13,178.087 L1655.737,85.96 C1656.347,86.398 1657.089,86.663 1657.896,86.663 C1659.947,86.663 1661.616,84.994 1661.616,82.942 C1661.616,82.666 1661.581,82.399 1661.524,82.141 L1902.224,-76.698 L1902.224,-76.698 Z M1178.948,335.674 C1177.263,335.674 1175.895,336.974 1175.756,338.623 L1040.272,344.694 C1040.248,344.576 1040.204,344.466 1040.168,344.352 L1215.89,255.444 C1216.165,255.844 1216.516,256.183 1216.923,256.449 L1179.445,335.724 C1179.282,335.698 1179.118,335.674 1178.948,335.674 L1178.948,335.674 Z M1221.287,250.466 C1220.646,249.942 1219.839,249.615 1218.948,249.615 C1217.65,249.615 1216.509,250.286 1215.843,251.297 L1024.193,159.676 C1024.261,159.396 1024.306,159.108 1024.306,158.809 C1024.306,157.888 1023.957,157.055 1023.4,156.404 L1092.16,80.709 C1092.702,81.019 1093.32,81.209 1093.987,81.209 C1096.039,81.209 1097.708,79.54 1097.708,77.488 C1097.708,76.693 1097.452,75.959 1097.025,75.353 L1218.803,-58.705 C1219.41,-58.273 1220.147,-58.013 1220.948,-58.013 C1221.774,-58.013 1222.53,-58.292 1223.149,-58.75 L1366.772,110.115 C1366.183,110.773 1365.812,111.635 1365.812,112.587 C1365.812,113.388 1366.072,114.125 1366.504,114.732 L1221.287,250.466 L1221.287,250.466 Z M1373.241,112.715 L1654.438,84.289 C1654.575,84.64 1654.769,84.958 1654.999,85.248 L1515.575,177.254 C1514.894,176.475 1513.903,175.972 1512.788,175.972 C1510.736,175.972 1509.067,177.641 1509.067,179.692 C1509.067,180.643 1509.436,181.503 1510.026,182.161 L1417.771,290.335 L1370.972,116.018 C1372.273,115.47 1373.189,114.2 1373.241,112.715 L1373.241,112.715 Z M1502.53,-160.49 L1685.078,-158.509 L1566.427,-11.483 C1565.895,-11.775 1565.294,-11.957 1564.647,-11.957 C1564.259,-11.957 1563.891,-11.881 1563.539,-11.77 L1502.53,-160.49 L1502.53,-160.49 Z M1561.725,-5.96 C1562.407,-5.088 1563.456,-4.516 1564.647,-4.516 C1565.462,-4.516 1566.212,-4.787 1566.825,-5.234 L1655.175,80.424 C1654.559,81.088 1654.176,81.969 1654.176,82.942 C1654.176,83.067 1654.2,83.185 1654.212,83.307 L1373.142,111.72 C1373.087,111.496 1373.016,111.279 1372.925,111.072 L1561.725,-5.96 L1561.725,-5.96 Z M1368.153,109.138 C1367.934,109.226 1367.728,109.334 1367.53,109.461 L1223.865,-59.451 C1224.362,-60.084 1224.67,-60.869 1224.67,-61.733 C1224.67,-62.661 1224.315,-63.501 1223.752,-64.153 L1303.003,-151.397 L1368.153,109.138 L1368.153,109.138 Z M1091.982,74.364 C1090.952,75.027 1090.266,76.177 1090.266,77.488 C1090.266,78.512 1090.683,79.438 1091.353,80.112 L1022.666,155.726 C1022.071,155.323 1021.356,155.088 1020.585,155.088 C1018.533,155.088 1016.864,156.757 1016.864,158.809 C1016.864,159.706 1017.196,160.52 1017.727,161.162 L948.075,237.838 C947.488,237.053 946.559,236.537 945.503,236.537 C944.62,236.537 943.821,236.893 943.239,237.47 L884.907,172.096 C885.464,171.445 885.813,170.612 885.813,169.691 C885.813,167.64 884.144,165.971 882.092,165.971 C881.901,165.971 881.718,165.999 881.534,166.027 L844.006,38.554 C845.004,37.886 845.663,36.75 845.663,35.461 C845.663,33.934 844.736,32.621 843.417,32.048 L854.199,-76.057 C856.251,-76.057 857.92,-77.726 857.92,-79.777 C857.92,-80.687 857.579,-81.51 857.036,-82.156 L984.616,-156.153 L1091.982,74.364 L1091.982,74.364 Z M490.116,291.614 C489.3,291.614 488.551,291.887 487.937,292.334 L437.819,242.726 C438.179,242.153 438.395,241.482 438.395,240.758 C438.395,238.706 436.726,237.037 434.674,237.037 C432.622,237.037 430.953,238.706 430.953,240.758 C430.953,241.207 431.046,241.632 431.192,242.031 L211.634,343.977 C211.581,343.892 211.524,343.814 211.464,343.735 L393.293,144.818 C393.894,145.236 394.622,145.484 395.408,145.484 C397.46,145.484 399.129,143.815 399.129,141.764 C399.129,141.625 399.103,141.494 399.088,141.359 L581.063,77.037 C581.729,78.049 582.871,78.72 584.17,78.72 C584.903,78.72 585.582,78.5 586.159,78.133 L663.485,187.044 C662.76,187.724 662.3,188.682 662.3,189.752 C662.3,190.277 662.412,190.775 662.608,191.228 L493.336,293.505 C492.694,292.382 491.499,291.614 490.116,291.614 L490.116,291.614 Z M666.021,186.031 C665.399,186.031 664.82,186.199 664.304,186.471 L586.921,77.481 C587.518,76.821 587.891,75.956 587.891,74.999 C587.891,74.662 587.831,74.342 587.747,74.031 L742.155,-15.525 C742.819,-14.501 743.967,-13.818 745.275,-13.818 C746.357,-13.818 747.324,-14.29 748.005,-15.03 L838.589,33.878 C838.36,34.359 838.222,34.892 838.222,35.461 C838.222,36.77 838.905,37.918 839.931,38.582 L811.843,85.91 C811.397,85.721 810.906,85.615 810.392,85.615 C808.34,85.615 806.671,87.284 806.671,89.336 C806.671,89.945 806.832,90.514 807.093,91.021 L668.751,187.244 C668.07,186.504 667.102,186.031 666.021,186.031 L666.021,186.031 Z M814.112,89.336 C814.112,88.157 813.552,87.118 812.693,86.435 L840.845,38.998 C841.194,39.106 841.558,39.181 841.942,39.181 C842.345,39.181 842.725,39.101 843.09,38.982 L880.573,166.303 C880.377,166.391 880.187,166.489 880.011,166.608 L813.207,91.74 C813.764,91.09 814.112,90.257 814.112,89.336 L814.112,89.336 Z M850.721,-78.493 C851.133,-77.381 852.058,-76.527 853.21,-76.207 L842.438,31.79 C842.274,31.768 842.112,31.74 841.942,31.74 C840.819,31.74 839.824,32.25 839.142,33.039 L748.576,-15.858 C748.836,-16.365 748.996,-16.932 748.996,-17.539 C748.996,-18.156 748.831,-18.73 748.563,-19.242 L850.721,-78.493 L850.721,-78.493 Z M597.864,-92.512 C598.128,-92.451 598.4,-92.414 598.683,-92.414 C599.942,-92.414 601.054,-93.047 601.727,-94.008 L741.679,-18.445 C741.606,-18.154 741.555,-17.854 741.555,-17.539 C741.555,-17.154 741.63,-16.789 741.739,-16.44 L587.354,73.104 C586.927,72.389 586.272,71.83 585.483,71.529 L597.864,-92.512 L597.864,-92.512 Z M580.497,75.478 C580.526,75.701 580.575,75.916 580.641,76.125 L398.856,140.381 C398.306,139.013 396.971,138.043 395.408,138.043 C395.032,138.043 394.678,138.115 394.336,138.219 L360.587,64.512 C361.217,64.131 361.723,63.573 362.038,62.901 L580.497,75.478 L580.497,75.478 Z M172.76,220.299 C172.222,219.271 171.158,218.562 169.917,218.562 C169.831,218.562 169.749,218.58 169.665,218.587 L117.391,64.652 C117.642,64.526 117.873,64.373 118.088,64.196 L253.329,189.505 C253.063,189.974 252.898,190.508 252.898,191.086 C252.898,191.379 252.95,191.658 253.023,191.928 L172.76,220.299 L172.76,220.299 Z M259.065,189.793 C258.566,188.659 257.437,187.865 256.119,187.865 C255.28,187.865 254.524,188.193 253.952,188.718 L118.775,63.471 C119.202,62.865 119.457,62.132 119.457,61.337 C119.457,60.684 119.273,60.08 118.978,59.546 L294.212,-70.848 C294.888,-70.154 295.828,-69.721 296.871,-69.721 C297.247,-69.721 297.602,-69.793 297.943,-69.897 L356.615,58.241 C355.614,58.909 354.953,60.047 354.953,61.337 C354.953,63.389 356.622,65.058 358.674,65.058 C359.02,65.058 359.349,64.995 359.667,64.906 L393.423,138.629 C392.383,139.289 391.687,140.443 391.687,141.764 C391.687,142.145 391.762,142.504 391.868,142.85 L259.065,189.793 L259.065,189.793 Z M370.739,364.941 C368.96,364.941 367.518,366.384 367.518,368.162 C367.518,368.593 367.606,369.003 367.761,369.379 L214.114,462.212 L209.527,348.828 C211.008,348.537 212.125,347.235 212.125,345.67 C212.125,345.402 212.083,345.147 212.021,344.898 L431.656,242.918 C432.332,243.859 433.429,244.478 434.674,244.478 C435.639,244.478 436.513,244.1 437.175,243.494 L487.219,293.029 C486.712,293.666 486.396,294.46 486.396,295.335 C486.396,296.074 486.618,296.759 486.991,297.339 L373.191,366.097 C372.601,365.396 371.728,364.941 370.739,364.941 L370.739,364.941 Z M623.669,423.957 C623.639,423.957 623.61,423.948 623.58,423.948 C622.823,423.948 622.119,424.178 621.531,424.568 L493.142,297.485 C493.575,296.877 493.837,296.138 493.837,295.335 C493.837,295.025 493.788,294.73 493.717,294.443 L663.14,192.077 C663.589,192.633 664.188,193.051 664.883,193.275 L643.54,312.733 C643.518,312.732 643.497,312.726 643.475,312.726 C641.695,312.726 640.254,314.169 640.254,315.947 C640.254,317.355 641.164,318.541 642.425,318.978 L623.669,423.957 L623.669,423.957 Z M646.676,316.139 C646.68,316.074 646.695,316.013 646.695,315.947 C646.695,314.538 645.784,313.353 644.523,312.916 L665.866,193.457 C665.919,193.459 665.968,193.473 666.021,193.473 C668.072,193.473 669.741,191.804 669.741,189.752 C669.741,189.143 669.58,188.575 669.319,188.066 L807.661,91.844 C808.342,92.584 809.308,93.057 810.392,93.057 C811.162,93.057 811.878,92.821 812.472,92.419 L879.276,167.287 C878.72,167.937 878.371,168.77 878.371,169.691 C878.371,171.743 880.04,173.412 882.092,173.412 C882.862,173.412 883.578,173.177 884.173,172.774 L942.644,238.305 C942.421,238.743 942.282,239.232 942.282,239.758 C942.282,240.925 942.909,241.937 943.839,242.502 L840.209,356.583 C839.763,356.349 839.262,356.203 838.722,356.203 C837.565,356.203 836.56,356.817 835.992,357.732 L646.676,316.139 L646.676,316.139 Z M841.425,361.164 C841.749,360.661 841.942,360.066 841.942,359.424 C841.942,358.548 841.59,357.756 841.022,357.175 L944.825,242.904 C945.044,242.951 945.269,242.978 945.503,242.978 C947.282,242.978 948.724,241.536 948.724,239.758 C948.724,239.419 948.657,239.099 948.56,238.792 L1018.454,161.85 C1019.059,162.275 1019.791,162.529 1020.585,162.529 C1021.981,162.529 1023.186,161.747 1023.822,160.606 L1215.423,252.205 C1215.307,252.564 1215.229,252.939 1215.229,253.336 C1215.229,253.762 1215.315,254.165 1215.448,254.547 L1039.722,343.457 C1039.138,342.647 1038.191,342.115 1037.116,342.115 C1035.337,342.115 1033.896,343.557 1033.896,345.336 C1033.896,346.107 1034.178,346.806 1034.63,347.36 L930.917,463.055 L841.425,361.164 L841.425,361.164 Z M1259.222,468.576 L1181.032,341.332 C1181.084,341.287 1181.142,341.25 1181.19,341.202 L1296.891,428.023 C1296.651,428.473 1296.504,428.979 1296.504,429.523 C1296.504,431.302 1297.945,432.744 1299.725,432.744 C1300.596,432.744 1301.386,432.394 1301.966,431.831 L1347.013,465.634 L1259.222,468.576 L1259.222,468.576 Z M1301.401,426.786 C1300.912,426.485 1300.342,426.303 1299.725,426.303 C1298.851,426.303 1298.062,426.652 1297.484,427.217 L1181.782,340.396 C1182.021,339.945 1182.17,339.439 1182.17,338.894 C1182.17,337.643 1181.448,336.569 1180.403,336.036 L1217.832,256.867 C1218.187,256.979 1218.557,257.056 1218.948,257.056 C1221,257.056 1222.67,255.388 1222.67,253.336 C1222.67,252.535 1222.409,251.797 1221.977,251.189 L1367.194,115.457 C1367.835,115.98 1368.642,116.307 1369.532,116.307 C1369.692,116.307 1369.844,116.28 1370,116.26 L1416.983,291.259 L1301.401,426.786 L1301.401,426.786 Z M1579.305,321.226 C1578.641,320.215 1577.499,319.543 1576.199,319.543 C1574.147,319.543 1572.479,321.212 1572.479,323.264 C1572.479,324.838 1573.464,326.178 1574.848,326.721 L1464.16,463.119 L1418.087,291.507 L1510.781,182.816 C1511.362,183.189 1512.048,183.413 1512.788,183.413 C1514.306,183.413 1515.608,182.498 1516.186,181.193 L1655.271,221.3 C1655.212,221.562 1655.176,221.83 1655.176,222.109 C1655.176,223.51 1655.962,224.717 1657.109,225.351 L1579.305,321.226 L1579.305,321.226 Z M1662.59,222.369 C1662.597,222.282 1662.616,222.198 1662.616,222.109 C1662.616,221.56 1662.489,221.043 1662.276,220.574 L1794.958,57.072 C1795.521,57.416 1796.177,57.625 1796.884,57.625 C1797.63,57.625 1798.323,57.399 1798.906,57.019 L1916.833,193.982 L1813.925,263.267 C1813.243,262.503 1812.261,262.012 1811.159,262.012 C1809.642,262.012 1808.339,262.927 1807.761,264.232 L1662.59,222.369 L1662.59,222.369 Z" id="Imported-Layers" sketch:type="MSShapeGroup"></path>
        </g>
    </g>
</svg>