<?xml version="1.0" encoding="UTF-8" standalone="no"?>
<svg width="75px" height="75px" viewBox="0 0 75 75" version="1.1" xmlns="http://www.w3.org/2000/svg" xmlns:xlink="http://www.w3.org/1999/xlink" xmlns:sketch="http://www.bohemiancoding.com/sketch/ns">
    <!-- Generator: Sketch 3.0.3 (7891) - http://www.bohemiancoding.com/sketch -->
    <title>logo_solo</title>
    <desc>Created with Sketch.</desc>
    <defs></defs>
    <g id="Page-1" stroke="none" stroke-width="1" fill="none" fill-rule="evenodd" sketch:type="MSPage">
        <g id="logo_solo" sketch:type="MSArtboardGroup">
            <g id="Imported-Layers" sketch:type="MSLayerGroup" transform="translate(1.000000, 1.000000)">
                <path d="M0.377927083,6.79660417 C1.53071875,7.59504167 29.3133021,37.330375 29.3133021,37.330375 L15.4090833,55.9902396 L0.377927083,6.79660417" id="Fill-1" fill="#27AA81" sketch:type="MSShapeGroup"></path>
                <path d="M27.2791875,40.0602708 L22.4779167,46.5017604 L22.484,46.5116458 L27.2791875,40.0602708 M0.377927083,6.78595833 L0.3878125,6.80344792 C1.67215625,7.74864583 28.9825208,36.9767813 29.3102604,37.3273333 L29.3133021,37.3235313 C29.3133021,37.3235313 1.533,7.58363542 0.377927083,6.78595833" id="Fill-2" fill="#FFFFFF" sketch:type="MSShapeGroup"></path>
                <path d="M0.3878125,6.80344792 L22.4779167,46.5017604 L27.2791875,40.0602708 L29.3102604,37.3273333 C28.9825208,36.9767813 1.67215625,7.74864583 0.3878125,6.80344792" id="Fill-3" fill="#52BB9A" sketch:type="MSShapeGroup"></path>
                <path d="M65.7174896,-0.249416667 C64.9175313,0.902614583 35.1837187,28.6867188 35.1837187,28.6867188 L16.5223333,14.7817396 L65.7174896,-0.249416667" id="Fill-4" fill="#247FCC" sketch:type="MSShapeGroup"></path>
                <path d="M65.7266146,-0.249416667 L65.7106458,-0.240291667 C64.7730521,1.03340625 35.5380729,28.3551771 35.1867604,28.6836771 L35.1913229,28.6867188 C35.1913229,28.6867188 64.9304583,0.90565625 65.7266146,-0.249416667" id="Fill-5" fill="#FFFFFF" sketch:type="MSShapeGroup"></path>
                <path d="M65.7106458,-0.240291667 L26.1705,21.9501875 L35.1867604,28.6836771 C35.5380729,28.3551771 64.7730521,1.03340625 65.7106458,-0.240291667" id="Fill-6" fill="#5099D6" sketch:type="MSShapeGroup"></path>
                <path d="M72.9125521,65.4414583 C71.7582396,64.6399792 43.9764167,34.9076875 43.9764167,34.9076875 L57.8813958,16.2463021 L72.9125521,65.4414583" id="Fill-7" fill="#FF7300" sketch:type="MSShapeGroup"></path>
                <path d="M43.9794583,34.9107292 L43.9764167,34.9145312 C43.9764167,34.9145312 71.7574792,64.6544271 72.9125521,65.4505833 L72.9034271,65.4361354 C71.6411354,64.5107083 44.3064375,35.2612812 43.9794583,34.9107292 M50.7730208,25.7796458 L47.815,29.7558646 L50.7753021,25.7826875 L50.7730208,25.7796458" id="Fill-8" fill="#FFFFFF" sketch:type="MSShapeGroup"></path>
                <path d="M50.7753021,25.7826875 L47.815,29.7558646 L43.9794583,34.9107292 C44.3064375,35.2612812 71.6411354,64.5107083 72.9034271,65.4361354 L50.7753021,25.7826875" id="Fill-9" fill="#FF8F33" sketch:type="MSShapeGroup"></path>
                <path d="M7.07567708,72.197 C7.87715625,71.0449688 37.6094479,43.2631458 37.6094479,43.2631458 L56.2708333,57.168125 L7.07567708,72.197" id="Fill-10" fill="#FFB207" sketch:type="MSShapeGroup"></path>
                <path d="M38.6413333,44.0319271 L46.7329271,50.0612708 L46.765625,50.0430208 L38.6413333,44.0319271 M37.6018437,43.2631458 C37.6010833,43.2631458 7.86422917,71.0434479 7.06655208,72.197 L7.081,72.1886354 C8.00490625,70.9263438 37.2550938,43.5931667 37.6056458,43.2661875 L37.6018437,43.2631458" id="Fill-11" fill="#FFFFFF" sketch:type="MSShapeGroup"></path>
                <path d="M37.6056458,43.2661875 C37.2550938,43.5931667 8.00490625,70.9263438 7.081,72.1886354 L46.7329271,50.0612708 L38.6413333,44.0319271 L37.6056458,43.2661875" id="Fill-12" fill="#FFC139" sketch:type="MSShapeGroup"></path>
            </g>
        </g>
    </g>
</svg>