<?xml version="1.0" encoding="utf-8"?>
<!-- Generator: Adobe Illustrator 16.0.4, SVG Export Plug-In . SVG Version: 6.00 Build 0)  -->
<!DOCTYPE svg PUBLIC "-//W3C//DTD SVG 1.1//EN" "http://www.w3.org/Graphics/SVG/1.1/DTD/svg11.dtd">
<svg version="1.1" id="Layer_1" xmlns="http://www.w3.org/2000/svg" xmlns:xlink="http://www.w3.org/1999/xlink" x="0px" y="0px"
	 width="234px" height="50px" viewBox="0 0 234 50" enable-background="new 0 0 234 50" xml:space="preserve">
<g>
	<g>
		<path fill="#DEB308" d="M202.038,40.887l3.617-9.568l0.63,0.543c2.222,1.812,5.232,3.353,8.078,3.413
			c2.54,0.059,3.784-0.618,3.445-2.769c-0.251-1.608-2.065-1.89-3.197-2.114l-2.488-0.497c-4.838-0.903-8.908-3.89-8.908-9.542
			c0-8.549,7.371-13.343,14.783-13.343c3.896,0,7.466,0.992,10.812,3.166l-3.142,8.479c-1.723-1.241-4.33-2.987-7.633-3.107
			c-1.085-0.041-3.568,0.528-2.773,3.051c0.344,1.074,1.883,1.524,2.829,1.755l2.805,0.677c5.247,1.221,9.042,4.206,9.042,10.31
			c0,8.593-7.415,12.847-14.784,12.847C210.858,44.188,205.879,42.965,202.038,40.887"/>
		<rect x="186.963" y="7.598" fill="#DEB308" width="12.406" height="36.051"/>
		<polygon fill="#DEB308" points="172.733,7.598 185.665,7.598 172.459,43.649 161.968,43.649 148.806,7.598 161.693,7.598 
			167.214,29.351 		"/>
		<path fill="#DEB308" d="M118.188,43.649h13.114l0.995-4.528h9.361l1.242,4.528h13.119L143.739,7.598h-13.756L118.188,43.649z
			 M137,18.004L137,18.004c0.229,1.534,2.488,12.568,2.488,12.568h-4.96L137,18.004z"/>
		<path fill="#DEB308" d="M98.466,33.297h0.849c4.161,0,7.247-2.497,7.247-7.201c0-5.065-2.735-7.891-7.305-7.891h-0.791V33.297z
			 M85.983,7.598h12.709c11.535,0,20.351,5.295,20.351,18.544c0,10.675-7.188,17.507-17.274,17.507l-15.785-0.02V7.598z"/>
		<path fill="#DEB308" d="M78.431,8.729l0.673,5.914c0.159,1.405,0.959,4.775-0.027,4.324c-0.622-0.278-1.132-1.807-1.641-3.161
			c-0.257-0.689-1.487-3.945-1.809-4.185c-1.553-1.163-5.428-2.472-8.048-2.484c-7.951-0.03-13.209,5.833-13.209,16.237
			c0,7.462,3.574,16.415,12.663,16.415c3.258,0,9.496-1.025,11.194-5.659c0.766-2.097,1.47-3.959,1.979-3.396
			c0.376,0.415-0.114,2.093-0.341,2.997c-1.071,4.296-1.13,5.597-1.47,5.765c-4.106,2.06-9.372,2.74-13.983,2.74
			c-14.656,0-19.721-8.55-19.721-17.097c0-14.834,9.114-20.975,23.245-20.442C71.508,6.829,75.083,7.465,78.431,8.729"/>
		<path fill="#DEB308" d="M35.149,9.385l-2.345-0.818c-0.791-0.709,0.169-0.906,0.169-0.906s3.392,0.628,11.846-0.087
			c0,0,0.733,0.146,0.224,0.74l-2.77,1.187c-1.809,0.789-1.809,0.337-1.809,2.315L40.45,30.189
			c0,14.368-14.618,14.045-17.467,14.045c-1.354,0-14.655,0-14.655-11.536V13.252c0-3.392,0.362-3.301-0.766-3.699L4.17,8.281
			c0,0-0.572-0.813,0.45-0.762c2.771,0.142,6.786,0.736,16.115,0.055c0,0,0.818,0.2,0.28,0.793L18.303,9.16
			c-2.148,0.962-1.864,0.225-1.921,2.431l0.066,19.176c0,4.703,2.42,10.523,9.926,10.523c10.36,0,10.457-8.96,10.457-10.951
			l0.019-18.998C36.959,9.553,36.734,10.063,35.149,9.385"/>
	</g>
</g>
</svg>
